<svg width="68" height="51" viewBox="0 0 68 51" fill="none" xmlns="http://www.w3.org/2000/svg">
<path d="M0.999986 49.5029V2.49692C1.36199 1.60892 2.21999 0.99392 3.21999 0.99392C3.27999 0.99392 3.33999 0.99592 3.39899 1.00092H3.39099H64.727C64.784 0.99592 64.851 0.99292 64.918 0.99292C66.158 0.99292 67.163 1.99792 67.163 3.23792C67.163 3.30492 67.16 3.37192 67.154 3.43692L67.155 3.42892C67.155 12.9029 67.155 22.3779 67.155 31.8339C67.155 37.4749 67.155 43.1149 67.155 48.7559C67.163 48.8219 67.167 48.8989 67.167 48.9769C67.167 50.0759 66.276 50.9669 65.177 50.9669C65.147 50.9669 65.117 50.9659 65.087 50.9649H65.091H3.64499C3.54299 50.9789 3.42599 50.9879 3.30599 50.9879C2.28699 50.9879 1.40799 50.3869 1.00499 49.5209L0.997986 49.5049L0.999986 49.5029ZM63.066 5.14392H5.12499V33.0919L5.76399 32.6539L16.991 24.6039C17.388 24.2059 17.936 23.9599 18.543 23.9599C19.15 23.9599 19.698 24.2059 20.095 24.6039L31.888 33.0559C33.713 34.3699 35.539 35.6849 37.364 36.9629C37.696 37.2189 38.117 37.3739 38.575 37.3739C39.476 37.3739 40.237 36.7759 40.482 35.9549L40.486 35.9409C40.537 35.7709 40.566 35.5759 40.566 35.3729C40.566 34.5999 40.141 33.9259 39.511 33.5729L39.501 33.5679C36.9577 31.7793 34.469 29.9843 32.035 28.1829L31.469 27.7629L31.798 27.5069L41.966 20.2049C42.363 19.8069 42.911 19.5609 43.518 19.5609C44.125 19.5609 44.673 19.8069 45.07 20.2049L62.412 32.6549L63.051 33.0749L63.066 5.14392Z" fill="#BDAE82"/>
</svg>
